<?xml version="1.0" encoding="UTF-8"?>
<svg width="24px" height="23px" viewBox="0 0 24 23" version="1.1" xmlns="http://www.w3.org/2000/svg" xmlns:xlink="http://www.w3.org/1999/xlink">
    <title>4096646191595988707</title>
    <g id="Page-1" stroke="none" stroke-width="1" fill="none" fill-rule="evenodd">
        <g id="Home-Selected" transform="translate(-331.000000, -34.000000)" fill="#412362" fill-rule="nonzero">
            <g id="4096646191595988707" transform="translate(331.000000, 34.000000)">
                <path d="M23.4893617,8.64906061 C23.4042553,8.2235287 22.9787234,7.96820955 22.5531915,7.96820955 C21.5319149,8.13842232 20.5106383,7.62778402 20,6.6916138 C19.4893617,5.84054997 19.5744681,4.64906061 20.1702128,3.88310317 C20.4255319,3.54267763 20.4255319,3.03203934 20.0851064,2.77672019 C18.7234043,1.50012444 17.106383,0.56395423 15.3191489,0.0533159324 C14.893617,-0.0317904505 14.4680851,0.138422315 14.2978723,0.56395423 C13.8723404,1.50012444 12.9361702,2.09586912 11.9148936,2.09586912 C10.893617,2.09586912 9.95744681,1.50012444 9.53191489,0.56395423 C9.36170213,0.138422315 8.93617021,-0.116896834 8.5106383,0.0533159324 C6.72340426,0.56395423 5.10638298,1.50012444 3.74468085,2.86182657 C3.40425532,3.11714572 3.40425532,3.62778402 3.65957447,3.96820955 C4.25531915,4.81927338 4.34042553,5.92565636 3.82978723,6.77672019 C3.31914894,7.62778402 2.29787234,8.13842232 1.27659574,8.05331593 C0.85106383,7.96820955 0.425531915,8.30863508 0.340425532,8.734167 C0.085106383,9.58523083 0,10.521401 0,11.4575713 C0,12.3937415 0.085106383,13.3299117 0.340425532,14.2660819 C0.425531915,14.6916138 0.85106383,14.946933 1.27659574,14.8618266 C2.29787234,14.6916138 3.31914894,15.2022521 3.82978723,16.1384223 C4.34042553,16.9894861 4.25531915,18.1809755 3.65957447,18.946933 C3.40425532,19.2873585 3.40425532,19.7979968 3.74468085,20.0533159 C5.10638298,21.3299117 6.80851064,22.3511883 8.59574468,22.8618266 C9.0212766,22.946933 9.44680851,22.7767202 9.61702128,22.3511883 C10.0425532,21.4150181 10.9787234,20.8192734 12,20.8192734 C13.0212766,20.8192734 13.9574468,21.4150181 14.3829787,22.3511883 C14.5531915,22.6916138 14.8085106,22.8618266 15.1489362,22.8618266 C15.2340426,22.8618266 15.3191489,22.8618266 15.4042553,22.8618266 C17.1914894,22.3511883 18.893617,21.3299117 20.2553191,20.0533159 C20.5957447,19.7128904 20.5957447,19.2873585 20.3404255,18.946933 C19.7446809,18.0958691 19.6595745,16.9894861 20.1702128,16.1384223 C20.6808511,15.2873585 21.7021277,14.7767202 22.7234043,14.8618266 C23.1489362,14.946933 23.5744681,14.6065074 23.6595745,14.1809755 C23.9148936,13.2448053 24,12.3086351 24,11.3724649 C24,10.4362947 23.7446809,9.58523083 23.4893617,8.64906061 Z M11.9148936,14.8618266 C10.0425532,14.8618266 8.5106383,13.3299117 8.5106383,11.4575713 C8.5106383,9.58523083 10.0425532,8.05331593 11.9148936,8.05331593 C13.787234,8.05331593 15.3191489,9.58523083 15.3191489,11.4575713 C15.3191489,13.3299117 13.787234,14.8618266 11.9148936,14.8618266 Z" id="Shape"></path>
            </g>
        </g>
    </g>
</svg>