<?xml version="1.0" encoding="UTF-8"?>
<svg width="31px" height="24px" viewBox="0 0 31 24" version="1.1" xmlns="http://www.w3.org/2000/svg" xmlns:xlink="http://www.w3.org/1999/xlink">
    <title>20846546501582634781</title>
    <g id="Page-1" stroke="none" stroke-width="1" fill="none" fill-rule="evenodd">
        <g id="Flights-Selected" transform="translate(-181.000000, -13.000000)" fill="#412362" fill-rule="nonzero">
            <g id="20846546501582634781" transform="translate(181.000000, 13.000000)">
                <path d="M15.176271,4.94117647 L4.25445485,13.7634564 C4.25445485,13.7759074 4.25126139,13.7942254 4.24487448,13.8191926 C4.23862063,13.8439642 4.23529412,13.8619562 4.23529412,13.8747331 L4.23529412,22.8082246 C4.23529412,23.1307771 4.35564746,23.4103052 4.59628761,23.6457007 C4.83686123,23.8812266 5.12174404,23.9997392 5.45100257,23.9997392 L12.744721,23.9997392 L12.744721,16.8527375 L17.6078875,16.8527375 L17.6078875,24 L24.9015394,24 C25.2307314,24 25.5160134,23.8817481 25.7562544,23.6457007 C25.9968945,23.410566 26.1176471,23.1308423 26.1176471,22.8082246 L26.1176471,13.8747331 C26.1176471,13.8251899 26.1107279,13.7877717 26.0984863,13.7634564 L15.176271,4.94117647 Z" id="Path"></path>
                <path d="M30.1435749,11.6849072 L26.0207493,8.28232071 L26.0207493,0.654494675 C26.0207493,0.480115554 25.9643029,0.336709517 25.8510146,0.224473011 C25.7386494,0.11236747 25.5942364,0.0563146994 25.4182372,0.0563146994 L21.8035606,0.0563146994 C21.6277593,0.0563146994 21.4834122,0.11236747 21.3703217,0.224473011 C21.257495,0.336709517 21.2011146,0.480181036 21.2011146,0.654494675 L21.2011146,4.30008568 L16.6074631,0.486074435 C16.206272,0.162002984 15.7292475,0 15.1769174,0 C14.6246531,0 14.1476947,0.162002984 13.7461079,0.486074435 L0.209204779,11.6849072 C0.0837171564,11.7844402 0.0149396523,11.9184168 0.00214690462,12.0867061 C-0.010579901,12.2548644 0.0332715278,12.401741 0.133833075,12.5262881 L1.30107239,13.9097962 C1.40163393,14.0219018 1.53325416,14.0904616 1.69646061,14.1155413 C1.84713807,14.1281139 1.99781554,14.0843718 2.14849301,13.9847079 L15.1765217,3.19703787 L28.2046823,13.9846424 C28.3053098,14.0716028 28.4368641,14.1150175 28.6000705,14.1150175 L28.6566488,14.1150175 C28.8195914,14.0903962 28.9509479,14.0213779 29.052037,13.9095343 L30.2194082,12.5262226 C30.3197719,12.4014136 30.3637552,12.2547989 30.3506987,12.0864441 C30.33784,11.9186132 30.2687987,11.7846366 30.1435749,11.6849072 Z" id="Path"></path>
            </g>
        </g>
    </g>
</svg>