<?xml version="1.0" encoding="UTF-8"?>
<svg width="20px" height="20px" viewBox="0 0 20 20" version="1.1" xmlns="http://www.w3.org/2000/svg" xmlns:xlink="http://www.w3.org/1999/xlink">
    <title>11007889141582779191</title>
    <g id="Page-1" stroke="none" stroke-width="1" fill="none" fill-rule="evenodd">
        <g id="Home-Selected" transform="translate(-35.000000, -35.000000)" fill="#412362" fill-rule="nonzero">
            <g id="11007889141582779191" transform="translate(35.000000, 35.000000)">
                <path d="M19.8078114,2.47567613 C20.1120934,1.5624037 20.0551655,0.858467645 19.636278,0.363568059 C19.1416199,-0.055104695 18.437593,-0.111987407 17.5241973,0.191920227 C16.6109016,0.496377694 15.792719,1.01007157 15.0695995,1.73310182 L12.7865351,4.01655781 L3.29736622,1.74754743 C3.14512527,1.69991191 3.00243063,1.73795035 2.86933226,1.86161276 L1.04269086,3.68830758 C0.938181399,3.79307574 0.895248054,3.92148671 0.914340648,4.07369045 C0.942879577,4.22609413 1.02379819,4.34010948 1.15694653,4.41628632 L8.40603444,8.39787621 L4.7100682,12.0941528 L1.94174209,11.3379826 C1.92274946,11.3283855 1.88481418,11.323587 1.82768634,11.323587 C1.69443803,11.323587 1.58513043,11.366324 1.49946366,11.452048 L0.129645049,12.8362273 C0.0345319461,12.9501426 -0.00820147658,13.0691565 0.00129483957,13.1927189 C0.0201875107,13.3449227 0.0820135269,13.4543894 0.186772888,13.5211191 L3.78267795,16.2181494 L6.47958176,19.8142565 C6.56524853,19.9191246 6.67945422,19.9806559 6.82214887,20 L6.8506878,20 C6.98393611,20 7.09324371,19.957263 7.17891047,19.871739 L8.54867911,18.5019553 C8.67233114,18.3685458 8.71041637,18.2210907 8.66293478,18.0593898 L7.90657819,15.2908312 L11.6024945,11.5943047 L15.58395,18.8444012 C15.6409279,18.9681136 15.7407891,19.0441905 15.8835837,19.0727818 C15.9119727,19.0823289 15.9453098,19.0869775 15.983495,19.0869775 C16.0974008,19.0869775 16.1879157,19.0583862 16.2544399,19.0014035 L18.0813312,17.6314699 C18.2427685,17.4983603 18.2998964,17.341508 18.2525647,17.1607129 L15.9694504,7.22818171 L18.2669092,4.93063 C18.9897288,4.20729984 19.5033795,3.38894856 19.8078114,2.47567613 Z" id="Path"></path>
            </g>
        </g>
    </g>
</svg>