<?xml version="1.0" encoding="UTF-8"?>
<svg width="48px" height="48px" viewBox="0 0 48 48" version="1.1" xmlns="http://www.w3.org/2000/svg" xmlns:xlink="http://www.w3.org/1999/xlink">
    <title>Bitmap 3</title>
    <defs>
        <rect id="path-1" x="0" y="0" width="48" height="48" rx="12"></rect>
    </defs>
    <g id="Page-1" stroke="none" stroke-width="1" fill="none" fill-rule="evenodd">
        <g id="LoginScreen---mobile" transform="translate(-131.000000, -382.000000)">
            <g id="Group" transform="translate(51.000000, 382.000000)">
                <g id="Bitmap" transform="translate(80.000000, 0.000000)">
                    <mask id="mask-2" fill="white">
                        <use xlink:href="#path-1"></use>
                    </mask>
                    <use id="Mask" fill="#000000" xlink:href="#path-1"></use>
                    <g id="" mask="url(#mask-2)" fill="#FFFFFF" fill-rule="nonzero">
                        <g transform="translate(10.250000, 6.578125)" id="Shape">
                            <path d="M14.2578125,8.90625 C14.84375,8.90625 15.8007813,8.67838542 17.1289062,8.22265625 C18.4570312,7.76692708 19.609375,7.5390625 20.5859375,7.5390625 C22.1875,7.5390625 23.6132812,7.96875 24.8632812,8.828125 C25.5664062,9.32291667 26.2630208,9.99348958 26.953125,10.8398438 C25.9114583,11.7252604 25.1497396,12.5130208 24.6679688,13.203125 C23.7955729,14.453125 23.359375,15.8333333 23.359375,17.34375 C23.359375,18.9973958 23.8216146,20.4882812 24.7460938,21.8164062 C25.6705729,23.1445312 26.7252604,23.984375 27.9101562,24.3359375 C27.4153646,25.9375 26.5950521,27.6106771 25.4492188,29.3554688 C23.7174479,31.9726562 21.9986979,33.28125 20.2929688,33.28125 C19.6158854,33.28125 18.6816406,33.0664062 17.4902344,32.6367188 C16.2988281,32.2070312 15.2929688,31.9921875 14.4726562,31.9921875 C13.6523438,31.9921875 12.6985677,32.2167969 11.6113281,32.6660156 C10.5240885,33.1152344 9.64192708,33.3398438 8.96484375,33.3398438 C6.92057292,33.3398438 4.91536458,31.6080729 2.94921875,28.1445312 C0.983072917,24.7200521 0,21.3606771 0,18.0664062 C0,15.0065104 0.751953125,12.5130208 2.25585938,10.5859375 C3.75976562,8.65885417 5.65755208,7.6953125 7.94921875,7.6953125 C8.92578125,7.6953125 10.1074219,7.89713542 11.4941406,8.30078125 C12.8808594,8.70442708 13.8020833,8.90625 14.2578125,8.90625 Z M20.3710938,0.83984375 C20.3710938,1.67317708 20.1757812,2.58463542 19.7851562,3.57421875 C19.3945312,4.56380208 18.7760417,5.48177083 17.9296875,6.328125 C17.2005208,7.04427083 16.4778646,7.52604167 15.7617188,7.7734375 C15.3059896,7.91666667 14.6158854,8.02734375 13.6914062,8.10546875 C13.7174479,6.12630208 14.235026,4.4140625 15.2441406,2.96875 C16.2532552,1.5234375 17.9231771,0.533854167 20.2539062,0 C20.3059896,0.169270833 20.3385417,0.319010417 20.3515625,0.44921875 C20.3645833,0.579427083 20.3710938,0.709635417 20.3710938,0.83984375 Z"></path>
                        </g>
                    </g>
                </g>
            </g>
        </g>
    </g>
</svg>