<?xml version="1.0" encoding="UTF-8"?>
<svg width="24px" height="24px" viewBox="0 0 24 24" version="1.1" xmlns="http://www.w3.org/2000/svg" xmlns:xlink="http://www.w3.org/1999/xlink">
    <title>16907201241588529854</title>
    <g id="Page-1" stroke="none" stroke-width="1" fill="none" fill-rule="evenodd">
        <g id="Home-Selected" transform="translate(-257.000000, -34.000000)" fill="#412362" fill-rule="nonzero">
            <g id="16907201241588529854" transform="translate(257.000000, 34.000000)">
                <path d="M18.744848,18.7851386 C19.208677,18.3244524 19.9521952,18.3244524 20.4160241,18.7851386 L20.4160241,18.7851386 L23.4816211,21.2596987 L23.5348433,21.2596987 C24.1550522,21.8865805 24.1550522,22.9029568 23.5348433,23.5298387 C22.9146342,24.1567205 21.9090767,24.1567205 21.2888677,23.5298387 L21.2888677,23.5298387 L18.744848,20.6141614 L18.6483092,20.505236 C18.4684764,20.2776023 18.3691567,19.9938138 18.3691567,19.69965 C18.3691567,19.3564589 18.5043419,19.0273897 18.744848,18.7851386 Z M10.2931675,0 C13.0230853,0 15.6411928,1.09612322 17.571536,3.04723506 C19.5018794,4.99834691 20.586335,7.64462245 20.586335,10.4039113 C20.586335,16.1498328 15.977927,20.8078225 10.2931675,20.8078225 C4.60840807,20.8078225 0,16.1498328 0,10.4039113 C0,4.65798974 4.60840807,0 10.2931675,0 Z" id="Shape"></path>
            </g>
        </g>
    </g>
</svg>