<?xml version="1.0" encoding="UTF-8"?>
<svg width="20px" height="18px" viewBox="0 0 20 18" version="1.1" xmlns="http://www.w3.org/2000/svg" xmlns:xlink="http://www.w3.org/1999/xlink">
    <title>Shape</title>
    <g id="Page-1" stroke="none" stroke-width="1" fill="none" fill-rule="evenodd">
        <g id="Home-Selected" transform="translate(-113.000000, -34.000000)" fill="#412362" fill-rule="nonzero">
            <g id="20378991101618214369" transform="translate(111.000000, 31.000000)">
                <path d="M17,19 L19,19 L19,11 L13,11 L13,19 L15,19 L15,13 L17,13 L17,19 Z M3,19 L3,4 C3,3.44771525 3.44771525,3 4,3 L18,3 C18.5522847,3 19,3.44771525 19,4 L19,9 L21,9 L21,19 L22,19 L22,21 L2,21 L2,19 L3,19 Z M7,11 L7,13 L9,13 L9,11 L7,11 Z M7,15 L7,17 L9,17 L9,15 L7,15 Z M7,7 L7,9 L9,9 L9,7 L7,7 Z" id="Shape"></path>
            </g>
        </g>
    </g>
</svg>